<svg version="1.1" id="Calque_1" xmlns="http://www.w3.org/2000/svg" xmlns:xlink="http://www.w3.org/1999/xlink" x="0px" y="0px"
	 viewBox="0 0 237.08 343.7" style="enable-background:new 0 0 237.08 343.7;" xml:space="preserve">
<path d="M41.79,95.5C41.72,81.97-6.2-26.01,42.49,5.85c27.66,18.46,26.58,33.34,43.06,40.24c14.08,5.89,16.97-4.09,48.71-2.12
	c26.1,1.62,28.4,8.64,38.82,4.24c11.85-2.28,28.22-44.51,53.65-43.77c24.89,21.62-2.85,51.44-3.53,86.12
	c-1.12,25.89,9.7,24.97,6.35,49.41c-8.55,49.98-17.45,42.58-25.41,68.47c-0.09,7.12,0.27,18.05,2.82,31.06
	c3.92,19.92,9.22,25.49,10.14,38.07c1.72,23.54-14.06,42.5-15.79,44.51c-19.91,23.26-52.64,22.23-86.12,21.18
	c-20.99-0.66-66.52-2.09-96-31.76c-5.53-5.57-15.41-15.78-18.35-31.76c-2.72-14.77,1.82-27.2,3.71-32.2
	c3.61-9.53,8.85-16.13,18.17-28.51c13.47-17.88,16.3-15.26,20.47-24c6.52-13.68,2.53-24.15,0-51.53
	C40.07,109.59,45.17,114.5,41.79,95.5z"/>
</svg>
