<svg version="1.1" id="Calque_1" xmlns="http://www.w3.org/2000/svg" xmlns:xlink="http://www.w3.org/1999/xlink" x="0px" y="0px"
	 viewBox="0 0 634.52 621.89" style="enable-background:new 0 0 634.52 621.89;" xml:space="preserve">
<style type="text/css">
	.st0{fill:#FF0000;}
</style>
<path class="st0" d="M572.41,458.3c10.18,19.39,34.45,65.58,18.45,106.94c-11.38,29.44-38.03,43.15-44.79,46.63
	c-22.7,11.68-46.4,12.27-76.35,6.28c-91.89-18.36-97.05-66.89-150.61-66.44c-46.92,0.39-47.66,37.53-139.77,62.24
	c-40.46,10.85-60.65,9.14-78.29,2.1c-23.75-9.48-54.43-33.26-61.3-67.37c-10.67-52.98,41.66-103.35,71.66-132.24
	c23.95-23.06,97.58-91.78,209.73-93.67C416.98,321.15,525.25,368.51,572.41,458.3z"/>
<ellipse transform="matrix(0.9848 -0.1736 0.1736 0.9848 -38.9797 14.6037)" class="st0" cx="63.97" cy="230.07" rx="62.82" ry="93.42"/>
<ellipse transform="matrix(0.1736 -0.9848 0.9848 0.1736 244.8985 752.0015)" class="st0" cx="570.55" cy="230.07" rx="93.42" ry="62.82"/>
<ellipse transform="matrix(0.9962 -0.0872 0.0872 0.9962 -7.2499 20.4093)" class="st0" cx="230.1" cy="93.23" rx="62.82" ry="93.42"/>
<ellipse transform="matrix(0.0872 -0.9962 0.9962 0.0872 278.1201 489.9734)" class="st0" cx="406.42" cy="93.23" rx="93.42" ry="62.82"/>
</svg>
