<svg version="1.1" id="Calque_1" xmlns="http://www.w3.org/2000/svg" xmlns:xlink="http://www.w3.org/1999/xlink" x="0px" y="0px"
	 viewBox="0 0 942.1 778.94" style="enable-background:new 0 0 942.1 778.94;" xml:space="preserve">
<style type="text/css">
	.st0{fill:#FFFFFF;}
</style>
<path d="M942.1,207.91V718.4c0,33.44-27.1,60.54-60.54,60.54H60.54C27.11,778.94,0,751.84,0,718.4V207.91
	c0-33.44,27.11-60.55,60.54-60.55h0.62v-13.15c0-13.08,10.61-23.69,23.69-23.69h89.47c13.08,0,23.68,10.61,23.68,23.69v13.15h80.98
	c-0.02-0.74-0.03-1.48-0.03-2.22V73.68C278.95,32.99,311.94,0,352.63,0h236.84c40.7,0,73.69,32.99,73.69,73.68v71.46
	c0,0.74-0.01,1.48-0.03,2.22h218.43C915,147.36,942.1,174.47,942.1,207.91z"/>
<path class="st0" d="M860.62,195.14H759.11c-9.76,0-17.67,7.91-17.67,17.67v0c0,9.76,7.91,17.67,17.67,17.67h101.51
	c9.76,0,17.67-7.91,17.67-17.67v0C878.29,203.05,870.38,195.14,860.62,195.14z"/>
<circle class="st0" cx="471.05" cy="478.5" r="238.5"/>
<circle cx="471.05" cy="478.5" r="193.9"/>
<circle class="st0" cx="471.05" cy="478.5" r="125.31"/>
</svg>